<svg width="613" height="124" viewBox="0 0 613 124" fill="none" xmlns="http://www.w3.org/2000/svg">
<g filter="url(#filter0_i_1504_1194)">
<path d="M1 24.456C1 16.2456 1 12.1404 2.59784 9.0045C4.00335 6.24604 6.24604 4.00335 9.0045 2.59784C12.1404 1 16.2456 1 24.456 1H123.2V123.2H24.4623C16.2497 123.2 12.1434 123.2 9.00666 121.601C6.24746 120.195 4.00416 117.952 2.59828 115.193C1 112.056 1 107.95 1 99.7373V24.456Z" fill="#0A0D11"/>
<path d="M1 24.456C1 16.2456 1 12.1404 2.59784 9.0045C4.00335 6.24604 6.24604 4.00335 9.0045 2.59784C12.1404 1 16.2456 1 24.456 1H123.2V123.2H24.4623C16.2497 123.2 12.1434 123.2 9.00666 121.601C6.24746 120.195 4.00416 117.952 2.59828 115.193C1 112.056 1 107.95 1 99.7373V24.456Z" stroke="#171D23" stroke-width="0.814664"/>
<path d="M93.6914 25.5898L93.6754 24.5397L97.6056 20.4027C98.966 18.9548 99.6183 18.1751 99.6263 17.1091C99.6183 15.9237 98.6318 15.1599 97.3351 15.152C95.9587 15.1599 95.0995 16.0271 95.0916 17.3159H93.7391C93.7232 15.2793 95.2984 13.9109 97.3828 13.9109C99.4751 13.9109 100.955 15.319 100.963 17.1091C100.955 18.3979 100.358 19.4003 98.3216 21.5006L95.6803 24.2215V24.3169H101.17V25.5898H93.6914ZM103.254 25.5898L103.238 24.5397L107.168 20.4027C108.529 18.9548 109.181 18.1751 109.189 17.1091C109.181 15.9237 108.195 15.1599 106.898 15.152C105.521 15.1599 104.662 16.0271 104.654 17.3159H103.302C103.286 15.2793 104.861 13.9109 106.946 13.9109C109.038 13.9109 110.518 15.319 110.526 17.1091C110.518 18.3979 109.921 19.4003 107.884 21.5006L105.243 24.2215V24.3169H110.732V25.5898H103.254Z" fill="#C1D1DF"/>
<rect x="123.199" y="1" width="122.2" height="122.2" fill="#0A0D11"/>
<rect x="123.199" y="1" width="122.2" height="122.2" stroke="#171D23" stroke-width="0.814664"/>
<path d="M133.43 94.0019C133.43 90.3519 133.43 88.5269 134.14 87.1327C134.765 85.9064 135.762 84.9094 136.988 84.2846C138.382 83.5742 140.207 83.5742 143.857 83.5742H224.739C228.389 83.5742 230.214 83.5742 231.608 84.2846C232.835 84.9094 233.832 85.9064 234.457 87.1327C235.167 88.5269 235.167 90.3519 235.167 94.0019V102.181C235.167 105.831 235.167 107.656 234.457 109.05C233.832 110.277 232.835 111.274 231.608 111.898C230.214 112.609 228.389 112.609 224.739 112.609H143.857C140.207 112.609 138.382 112.609 136.988 111.898C135.762 111.274 134.765 110.277 134.14 109.05C133.43 107.656 133.43 105.831 133.43 102.181V94.0019Z" fill="#9747FF" fill-opacity="0.2"/>
<path d="M152.728 92.7812V101.475H151.518V99.1203H149.685V98.1529H151.518V96.74H149.685V95.7471H151.518V92.7812H152.728ZM143.232 95.0852V94.105H145.905V92.7685H147.101V94.105H149.647V95.0852H143.232ZM143.868 97.8219C143.868 96.5172 144.95 95.6262 146.49 95.6325C148.024 95.6262 149.119 96.5172 149.125 97.8219C149.119 99.133 148.024 100.024 146.49 100.024C144.95 100.024 143.868 99.133 143.868 97.8219ZM145.001 97.8219C144.995 98.5984 145.606 99.0821 146.49 99.0821C147.362 99.0821 147.98 98.5984 147.992 97.8219C147.98 97.0709 147.362 96.5872 146.49 96.5745C145.606 96.5872 144.995 97.0709 145.001 97.8219ZM145.281 103.932V100.711H146.503V102.952H152.982V103.932H145.281ZM160.327 93.7741C160.32 95.2888 162.173 96.7081 164.413 97.0073L163.942 98.0001C162.077 97.701 160.441 96.7336 159.697 95.3907C158.952 96.7336 157.316 97.701 155.464 98.0001L154.981 97.0073C157.215 96.7081 159.06 95.3079 159.067 93.7741V93.1504H160.327V93.7741ZM154.484 100.113V99.1203H164.884V100.113H160.25V104.174H159.067V100.113H154.484ZM169.174 93.494C170.93 93.494 172.235 94.6015 172.241 96.2053C172.235 97.6183 171.223 98.643 169.785 98.8721V100.68C170.797 100.629 171.809 100.552 172.75 100.431L172.84 101.335C170.427 101.755 167.773 101.774 165.8 101.755L165.609 100.762C166.494 100.756 167.512 100.75 168.575 100.724V98.8721C167.105 98.6557 166.099 97.6246 166.106 96.2053C166.099 94.6015 167.385 93.494 169.174 93.494ZM167.277 96.2053C167.271 97.2173 168.079 97.8919 169.174 97.8856C170.256 97.8919 171.051 97.2173 171.057 96.2053C171.051 95.187 170.256 94.5251 169.174 94.5124C168.079 94.5251 167.271 95.187 167.277 96.2053ZM173.438 104.174V92.7685H174.647V97.4019H176.404V98.4202H174.647V104.174H173.438ZM183.354 93.4304C184.302 93.424 185.11 93.7804 185.645 94.3723H188.496V92.7685H189.706V99.5022H188.496V97.962H185.639C185.104 98.5475 184.296 98.8976 183.354 98.8912C181.635 98.8976 180.356 97.7583 180.362 96.1672C180.356 94.5569 181.635 93.424 183.354 93.4304ZM181.521 96.1672C181.514 97.1664 182.285 97.8729 183.354 97.8601C184.391 97.8729 185.161 97.1664 185.161 96.1672C185.161 95.1425 184.391 94.4615 183.354 94.4742C182.285 94.4615 181.514 95.1425 181.521 96.1672ZM182.03 101.959C182.024 100.565 183.5 99.7504 185.887 99.7568C188.261 99.7504 189.737 100.565 189.744 101.959C189.737 103.346 188.261 104.155 185.887 104.148C183.5 104.155 182.024 103.346 182.03 101.959ZM183.214 101.959C183.207 102.742 184.213 103.2 185.887 103.194C187.561 103.2 188.56 102.742 188.56 101.959C188.56 101.144 187.561 100.692 185.887 100.686C184.213 100.692 183.207 101.144 183.214 101.959ZM186.199 95.3398C186.275 95.5943 186.32 95.8744 186.32 96.1672C186.32 96.4472 186.275 96.7209 186.199 96.9691H188.496V95.3398H186.199ZM200.398 92.7685V97.5419H202.117V98.5602H200.398V104.174H199.189V92.7685H200.398ZM191.322 101.068C192.22 101.068 193.263 101.068 194.352 101.036V99.8777C193.066 99.6868 192.226 98.9103 192.239 97.8092C192.226 96.5236 193.34 95.6771 194.963 95.6707C196.579 95.6771 197.706 96.5236 197.712 97.8092C197.706 98.9103 196.853 99.6931 195.561 99.8777V100.991C196.573 100.941 197.591 100.858 198.54 100.724L198.616 101.615C196.147 102.054 193.48 102.08 191.513 102.073L191.322 101.068ZM191.539 95.0852V94.1178H194.352V92.7939H195.561V94.1178H198.374V95.0852H191.539ZM193.372 97.8092C193.372 98.5348 194.008 98.9867 194.963 98.9803C195.917 98.9867 196.548 98.5348 196.554 97.8092C196.548 97.0773 195.917 96.6127 194.963 96.6127C194.008 96.6127 193.372 97.0773 193.372 97.8092ZM213.165 101.755V102.761H202.728V101.755H207.323V99.4131H203.924V93.545H205.133V95.5052H210.734V93.545H211.931V99.4131H208.519V101.755H213.165ZM205.133 98.4329H210.734V96.4854H205.133V98.4329ZM223.476 92.7685V104.174H222.254V92.7685H223.476ZM214.107 101.119C217.137 99.674 218.62 97.6183 218.855 94.9579H214.655V93.9905H220.077C220.077 97.3319 218.658 100.221 214.744 102.099L214.107 101.119Z" fill="#CCA5FF"/>
<circle cx="224.6" cy="19.5996" r="12" fill="#E8352A"/>
<path d="M215.815 25.2786L215.799 24.2284L219.729 20.0915C221.089 18.6435 221.742 17.8639 221.75 16.7978C221.742 15.6124 220.755 14.8487 219.458 14.8407C218.082 14.8487 217.223 15.7158 217.215 17.0047H215.862C215.847 14.968 217.422 13.5996 219.506 13.5996C221.599 13.5996 223.078 15.0078 223.086 16.7978C223.078 18.0866 222.482 19.089 220.445 21.1894L217.804 23.9102V24.0057H223.293V25.2786H215.815Z" fill="white"/>
<path d="M229.355 25.4377C227.064 25.4377 225.417 24.2125 225.346 22.3827H226.794C226.873 23.4806 227.963 24.1648 229.339 24.1648C230.859 24.1648 231.957 23.3453 231.965 22.144C231.957 20.887 230.954 20.004 229.164 19.996H228.226V18.739H229.164C230.565 18.739 231.543 17.9514 231.535 16.766C231.543 15.6124 230.7 14.8487 229.387 14.8407C228.154 14.8487 227.032 15.5249 226.969 16.6546H225.584C225.656 14.8248 227.358 13.5996 229.403 13.5996C231.599 13.5996 232.935 15.0396 232.92 16.6864C232.935 17.9991 232.172 18.9538 230.962 19.2959V19.3754C232.466 19.6062 233.373 20.6802 233.365 22.144C233.373 24.0375 231.655 25.4377 229.355 25.4377Z" fill="white"/>
<path d="M245.398 1H367.598V123.2H245.398V1Z" fill="#0A0D11"/>
<path d="M245.398 1H367.598V123.2H245.398V1Z" stroke="#171D23" stroke-width="0.814664"/>
<path d="M338.09 25.5898L338.074 24.5397L342.004 20.4027C343.364 18.9548 344.017 18.1751 344.025 17.1091C344.017 15.9237 343.03 15.1599 341.734 15.152C340.357 15.1599 339.498 16.0271 339.49 17.3159H338.138C338.122 15.2793 339.697 13.9109 341.781 13.9109C343.874 13.9109 345.353 15.319 345.361 17.1091C345.353 18.3979 344.757 19.4003 342.72 21.5006L340.079 24.2215V24.3169H345.568V25.5898H338.09ZM347.112 23.235V22.0575L352.299 14.07H354.065V21.978H355.672V23.235H354.065V25.5898H352.696V23.235H347.112ZM348.655 21.978H352.696V15.8839H352.553L348.655 21.8825V21.978Z" fill="#C1D1DF"/>
<path d="M367.6 1H489.799V123.2H367.6V1Z" fill="#0A0D11"/>
<path d="M367.6 1H489.799V123.2H367.6V1Z" stroke="#171D23" stroke-width="0.814664"/>
<path d="M460.291 25.5898L460.275 24.5397L464.205 20.4027C465.566 18.9548 466.218 18.1751 466.226 17.1091C466.218 15.9237 465.231 15.1599 463.935 15.152C462.558 15.1599 461.699 16.0271 461.691 17.3159H460.339C460.323 15.2793 461.898 13.9109 463.982 13.9109C466.075 13.9109 467.555 15.319 467.562 17.1091C467.555 18.3979 466.958 19.4003 464.921 21.5006L462.28 24.2215V24.3169H467.769V25.5898H460.291ZM473.609 25.749C471.532 25.749 469.957 24.4681 469.87 22.694H471.254C471.357 23.7203 472.36 24.484 473.609 24.492C475.104 24.484 476.186 23.3941 476.186 21.9461C476.186 20.4505 475.065 19.3446 473.513 19.3367C472.543 19.3207 471.787 19.6231 471.365 20.3709H469.981L470.792 14.07H477.03V15.3429H471.986L471.556 18.7161H471.668C472.185 18.3183 472.956 18.0478 473.768 18.0478C475.964 18.0478 477.579 19.6708 477.587 21.9143C477.579 24.1419 475.908 25.749 473.609 25.749Z" fill="#C1D1DF"/>
<path d="M489.799 1H588.542C596.753 1 600.858 1 603.994 2.59784C606.752 4.00335 608.995 6.24604 610.401 9.0045C611.998 12.1404 611.998 16.2456 611.998 24.456V99.7436C611.998 107.954 611.998 112.059 610.401 115.195C608.995 117.954 606.752 120.196 603.994 121.602C600.858 123.2 596.753 123.2 588.542 123.2H489.799V1Z" fill="#0A0D11"/>
<path d="M489.799 1H588.542C596.753 1 600.858 1 603.994 2.59784C606.752 4.00335 608.995 6.24604 610.401 9.0045C611.998 12.1404 611.998 16.2456 611.998 24.456V99.7436C611.998 107.954 611.998 112.059 610.401 115.195C608.995 117.954 606.752 120.196 603.994 121.602C600.858 123.2 596.753 123.2 588.542 123.2H489.799V1Z" stroke="#171D23" stroke-width="0.814664"/>
<path d="M582.49 25.5898L582.474 24.5397L586.404 20.4027C587.765 18.9548 588.417 18.1751 588.425 17.1091C588.417 15.9237 587.431 15.1599 586.134 15.152C584.758 15.1599 583.898 16.0271 583.89 17.3159H582.538C582.522 15.2793 584.097 13.9109 586.182 13.9109C588.274 13.9109 589.754 15.319 589.762 17.1091C589.754 18.3979 589.157 19.4003 587.12 21.5006L584.479 24.2215V24.3169H589.969V25.5898H582.49ZM596.063 25.749C594.066 25.7251 591.862 24.5397 591.862 20.2754C591.862 16.1942 593.533 13.9109 596.238 13.9109C598.266 13.9109 599.682 15.1599 599.977 16.9659H598.561C598.298 15.9475 597.519 15.1838 596.238 15.1838C594.344 15.1838 593.207 16.7988 593.214 19.5753H593.358C594.018 18.6127 595.076 18.0478 596.317 18.0478C598.362 18.0478 600.072 19.639 600.072 21.8666C600.072 24.0385 598.489 25.7728 596.063 25.749ZM593.405 21.8984C593.413 23.2509 594.519 24.484 596.063 24.492C597.55 24.484 598.68 23.3145 598.688 21.8825C598.68 20.4664 597.598 19.3128 596.094 19.3048C594.583 19.3128 593.421 20.538 593.405 21.8984Z" fill="#C1D1DF"/>
<path d="M500.389 57.0273C500.389 53.3773 500.389 51.5523 501.099 50.1581C501.724 48.9318 502.721 47.9348 503.947 47.31C505.341 46.5996 507.166 46.5996 510.816 46.5996H583.698C587.348 46.5996 589.173 46.5996 590.567 47.31C591.794 47.9348 592.791 48.9318 593.416 50.1581C594.126 51.5523 594.126 53.3773 594.126 57.0273V65.2065C594.126 68.8566 594.126 70.6816 593.416 72.0757C592.791 73.302 591.794 74.2991 590.567 74.9239C589.173 75.6342 587.348 75.6342 583.698 75.6342H510.816C507.166 75.6342 505.341 75.6342 503.947 74.9239C502.721 74.2991 501.724 73.302 501.099 72.0757C500.389 70.6816 500.389 68.8566 500.389 65.2065V57.0273Z" fill="#162942"/>
<path d="M519.967 55.7939V67.1992H518.808V55.7939H519.967ZM510.012 64.0551C511.629 63.0813 512.45 61.0064 512.456 58.9761V58.0597H510.356V57.0795H515.575V58.0597H513.615V58.9761C513.615 60.9237 514.404 62.8776 516.008 63.8005L515.282 64.6915C514.194 64.0423 513.449 62.8776 513.048 61.5029C512.641 62.9922 511.864 64.2651 510.751 64.9588L510.012 64.0551ZM514.735 60.8219V59.829H516.504V56.0357H517.65V66.6264H516.504V60.8219H514.735ZM525.338 56.9013V66.1172H523.925V58.3015H523.874L521.672 59.7399V58.4033L523.964 56.9013H525.338ZM534.096 56.9522V57.9196H527.299V56.9522H530.099V55.743H531.308V56.9522H534.096ZM527.922 60.5036C527.916 59.2562 529.049 58.4415 530.697 58.4288C532.339 58.4415 533.459 59.2562 533.459 60.5036C533.459 61.7575 532.339 62.5785 530.697 62.5785C529.049 62.5785 527.916 61.7575 527.922 60.5036ZM528.711 64.4879V63.5077H536.247V67.1992H535.038V64.4879H528.711ZM529.093 60.5036C529.081 61.2101 529.73 61.6365 530.697 61.6365C531.665 61.6365 532.314 61.2101 532.327 60.5036C532.314 59.8035 531.665 59.3644 530.697 59.358C529.73 59.3644 529.081 59.8035 529.093 60.5036ZM535.038 62.9222V55.7939H536.247V58.887H537.902V59.8926H536.247V62.9222H535.038ZM548.034 55.7939V67.1992H546.812V55.7939H548.034ZM538.666 64.1442C541.695 62.6994 543.178 60.6437 543.414 57.9833H539.213V57.0159H544.636C544.636 60.3573 543.216 63.2468 539.302 65.1243L538.666 64.1442ZM553.393 66.1172V65.0989L556.588 61.8784C557.6 60.8282 558.103 60.2427 558.103 59.4344C558.103 58.5243 557.365 57.9451 556.397 57.9451C555.373 57.9451 554.723 58.5943 554.717 59.5744H553.393C553.381 57.8878 554.666 56.774 556.423 56.774C558.198 56.774 559.427 57.9005 559.44 59.3962C559.427 60.4273 558.943 61.2483 557.212 62.9476L555.341 64.8443V64.9206H559.592V66.1172H553.393ZM564.671 56.4685L561.705 67.5047H560.496L563.462 56.4685H564.671ZM565.46 64.3224V63.1895L569.534 56.9013H571.265V63.1386H572.525V64.3224H571.265V66.1172H569.941V64.3224H565.46ZM566.937 63.1386H569.941V58.5688H569.839L566.937 63.0622V63.1386ZM577.566 57.8814C577.572 59.428 578.597 60.9173 580.315 61.522L579.653 62.4639C578.412 61.9866 577.477 61.0446 576.987 59.8672C576.497 61.1783 575.523 62.2157 574.18 62.7312L573.531 61.7766C575.306 61.1465 576.363 59.5617 576.369 57.8433V56.494H577.566V57.8814ZM575.606 66.9573V63.355H576.828V65.9772H583.307V66.9573H575.606ZM579.437 59.3962V58.4033H581.843V55.8066H583.052V64.3097H581.843V59.3962H579.437Z" fill="#9BC6FF"/>
<path d="M500.389 94.0019C500.389 90.3519 500.389 88.5269 501.099 87.1327C501.724 85.9064 502.721 84.9094 503.947 84.2846C505.341 83.5742 507.166 83.5742 510.816 83.5742H591.698C595.348 83.5742 597.173 83.5742 598.567 84.2846C599.794 84.9094 600.791 85.9064 601.416 87.1327C602.126 88.5269 602.126 90.3519 602.126 94.0019V102.181C602.126 105.831 602.126 107.656 601.416 109.05C600.791 110.277 599.794 111.274 598.567 111.898C597.173 112.609 595.348 112.609 591.698 112.609H510.816C507.166 112.609 505.341 112.609 503.947 111.898C502.721 111.274 501.724 110.277 501.099 109.05C500.389 107.656 500.389 105.831 500.389 102.181V94.0019Z" fill="#2AE86B" fill-opacity="0.2"/>
<path d="M513.653 95.8871C513.653 97.7074 514.417 99.6486 515.944 100.584L515.27 101.513C514.2 100.871 513.481 99.7313 513.086 98.4138C512.673 99.8586 511.884 101.093 510.776 101.768L510.025 100.864C511.635 99.8968 512.488 97.8792 512.482 95.938V93.8123H513.653V95.8871ZM514.709 97.7838V96.7782H516.479V92.9849H517.624V103.614H516.479V97.7838H514.709ZM518.834 104.174V92.7685H519.992V104.174H518.834ZM530.952 92.7812V101.475H529.743V99.1203H527.91V98.1529H529.743V96.74H527.91V95.7471H529.743V92.7812H530.952ZM521.456 95.0852V94.105H524.129V92.7685H525.326V94.105H527.871V95.0852H521.456ZM522.092 97.8219C522.092 96.5172 523.174 95.6262 524.715 95.6325C526.248 95.6262 527.343 96.5172 527.349 97.8219C527.343 99.133 526.248 100.024 524.715 100.024C523.174 100.024 522.092 99.133 522.092 97.8219ZM523.225 97.8219C523.219 98.5984 523.83 99.0821 524.715 99.0821C525.586 99.0821 526.204 98.5984 526.217 97.8219C526.204 97.0709 525.586 96.5872 524.715 96.5745C523.83 96.5872 523.219 97.0709 523.225 97.8219ZM523.505 103.932V100.711H524.727V102.952H531.206V103.932H523.505ZM539.06 93.9905V94.6906C539.054 95.6516 539.054 97.1218 538.729 99.1585L537.533 99.0694C537.826 97.2491 537.857 95.9189 537.864 94.9706H533.23V93.9905H539.06ZM532.594 100.737C533.307 100.731 534.102 100.724 534.936 100.705V97.2491H536.133V100.667C537.342 100.616 538.583 100.54 539.722 100.393L539.786 101.297C537.412 101.679 534.758 101.73 532.734 101.717L532.594 100.737ZM540.371 104.174V92.7685H541.593V97.4783H543.337V98.5093H541.593V104.174H540.371ZM556.677 92.7685V104.199H555.468V97.8601H553.113V96.8673H555.468V92.7685H556.677ZM547.029 101.017C548.773 100.183 550.001 98.0256 550.007 95.9762V94.907H547.487V93.9141H553.762V94.907H551.229V95.9762C551.229 97.9047 552.445 99.9859 554.195 100.762L553.47 101.73C552.152 101.093 551.14 99.7631 550.631 98.2102C550.122 99.865 549.084 101.284 547.767 101.959L547.029 101.017ZM560.292 93.4431V98.1656C562.011 98.1529 563.309 98.0702 564.786 97.7965L564.939 98.7894C563.322 99.1076 561.877 99.1903 559.949 99.184H559.096V93.4431H560.292ZM560.191 101.144V100.164H567.93V104.174H566.721V101.144H560.191ZM563.615 97.0709V96.1417H566.721V95.0215H563.615V94.0923H566.721V92.7685H567.93V99.6549H566.721V97.0709H563.615ZM573.836 94.4105C573.83 95.9889 574.899 97.4337 576.662 98.0129L576.051 98.9676C574.727 98.5093 573.741 97.5801 573.225 96.3899C572.716 97.6628 571.71 98.6748 570.361 99.1585L569.75 98.2165C571.526 97.5865 572.595 96.0399 572.601 94.4105V93.3158H573.836V94.4105ZM571.418 101.144V100.164H579.144V104.174H577.935V101.144H571.418ZM577.935 99.6167V92.7685H579.144V99.6167H577.935ZM584.911 95.6707C584.898 97.6883 586.075 99.7568 587.775 100.584L587.024 101.552C585.783 100.902 584.821 99.6295 584.319 98.1083C583.809 99.7249 582.81 101.093 581.512 101.768L580.761 100.788C582.511 99.9477 583.695 97.7583 583.701 95.6707V93.7232H584.911V95.6707ZM588.627 104.174V92.7685H589.837V97.3128H591.67V98.3438H589.837V104.174H588.627Z" fill="#A3FFC3"/>
<path d="M11.5996 57.0273C11.5996 53.3773 11.5996 51.5523 12.31 50.1581C12.9348 48.9318 13.9318 47.9348 15.1581 47.31C16.5523 46.5996 18.3773 46.5996 22.0273 46.5996H346.168C349.819 46.5996 351.645 46.5996 353.04 47.3102C354.266 47.9353 355.264 48.9328 355.889 50.1596C356.6 51.5543 356.6 53.3801 356.6 57.0316V65.2022C356.6 68.8538 356.6 70.6795 355.889 72.0742C355.264 73.3011 354.266 74.2985 353.04 74.9236C351.645 75.6342 349.819 75.6342 346.168 75.6342H22.0273C18.3773 75.6342 16.5523 75.6342 15.1581 74.9239C13.9318 74.2991 12.9348 73.302 12.31 72.0757C11.5996 70.6816 11.5996 68.8566 11.5996 65.2065V57.0273Z" fill="#162942"/>
<path d="M31.1775 55.7939V67.1992H30.0192V55.7939H31.1775ZM21.2233 64.0551C22.8399 63.0813 23.661 61.0064 23.6673 58.9761V58.0597H21.567V57.0795H26.786V58.0597H24.8257V58.9761C24.8257 60.9237 25.6149 62.8776 27.2187 63.8005L26.4932 64.6915C25.4048 64.0423 24.6602 62.8776 24.2592 61.5029C23.8519 62.9922 23.0754 64.2651 21.9616 64.9588L21.2233 64.0551ZM25.9458 60.8219V59.829H27.7152V56.0357H28.8608V66.6264H27.7152V60.8219H25.9458ZM39.7315 56.9013V66.1172H38.3185V58.3015H38.2676L36.0655 59.7399V58.4033L38.3567 56.9013H39.7315ZM48.4891 56.9522V57.9196H41.6918V56.9522H44.4922V55.743H45.7014V56.9522H48.4891ZM42.3155 60.5036C42.3091 59.2562 43.442 58.4415 45.0904 58.4288C46.7325 58.4415 47.8527 59.2562 47.8527 60.5036C47.8527 61.7575 46.7325 62.5785 45.0904 62.5785C43.442 62.5785 42.3091 61.7575 42.3155 60.5036ZM43.1047 64.4879V63.5077H50.6403V67.1992H49.4311V64.4879H43.1047ZM43.4866 60.5036C43.4738 61.2101 44.123 61.6365 45.0904 61.6365C46.0579 61.6365 46.707 61.2101 46.7198 60.5036C46.707 59.8035 46.0579 59.3644 45.0904 59.358C44.123 59.3644 43.4738 59.8035 43.4866 60.5036ZM49.4311 62.9222V55.7939H50.6403V58.887H52.2951V59.8926H50.6403V62.9222H49.4311ZM62.4275 55.7939V67.1992H61.2055V55.7939H62.4275ZM53.0589 64.1442C56.0884 62.6994 57.5713 60.6437 57.8068 57.9833H53.6062V57.0159H59.0288C59.0288 60.3573 57.6095 63.2468 53.6953 65.1243L53.0589 64.1442ZM77.7916 61.0765V62.0566H73.1836V63.1513C75.2712 63.2659 76.5123 63.966 76.5186 65.1625C76.5123 66.4545 75.0357 67.1801 72.5853 67.1737C70.1032 67.1801 68.6266 66.4545 68.6266 65.1625C68.6266 63.966 69.8677 63.2595 71.9871 63.1513V62.0566H67.3919V61.0765H77.7916ZM67.9392 59.5235C69.9886 59.3135 71.6052 58.3842 71.7707 57.2832H68.3466V56.3158H76.8623V57.2832H73.4C73.5655 58.3906 75.1694 59.3135 77.2569 59.5235L76.8241 60.4782C74.8448 60.2491 73.2091 59.4153 72.5917 58.206C71.9616 59.4153 70.3387 60.2491 68.3593 60.4782L67.9392 59.5235ZM69.8486 65.1625C69.8422 65.8562 70.8415 66.2572 72.5853 66.2445C74.3038 66.2572 75.3094 65.8562 75.3094 65.1625C75.3094 64.456 74.3038 64.0742 72.5853 64.0678C70.8415 64.0742 69.8422 64.456 69.8486 65.1625ZM87.6184 55.7939V59.1671H89.2732V60.1727H87.6184V64.0805H86.3964V55.7939H87.6184ZM78.6444 61.8657C81.3175 61.0637 82.9723 59.5426 83.2078 57.665H79.1281V56.6594H84.5253C84.5253 59.6508 82.4886 61.8211 79.1536 62.8331L78.6444 61.8657ZM80.3756 66.9573V63.2277H81.5976V65.9772H88.0894V66.9573H80.3756ZM94.1103 58.6961C94.0976 60.7773 95.3578 62.8776 97.1271 63.6605L96.4015 64.6152C95.0904 63.9914 94.053 62.7121 93.5184 61.1528C92.9901 62.8267 91.94 64.2015 90.5716 64.8697L89.8333 63.8514C91.6281 63.0558 92.8883 60.8728 92.8883 58.6961V56.7486H94.1103V58.6961ZM98.1582 67.2246V55.7939H99.3674V67.2246H98.1582ZM110.696 55.7939V62.7058H109.487V60.2236H107.705V59.218H109.487V55.7939H110.696ZM101.2 57.8942V56.9268H103.95V55.692H105.146V56.9268H107.883V57.8942H101.2ZM101.862 60.4527C101.862 59.2562 102.982 58.4161 104.548 58.4161C106.114 58.4161 107.221 59.2562 107.221 60.4527C107.221 61.6811 106.114 62.4958 104.548 62.5021C102.982 62.4958 101.862 61.6811 101.862 60.4527ZM103.021 60.4527C103.021 61.1465 103.638 61.5793 104.548 61.5856C105.446 61.5793 106.063 61.1465 106.063 60.4527C106.063 59.7844 105.446 59.3389 104.548 59.3453C103.638 59.3389 103.021 59.7844 103.021 60.4527ZM103.173 67.0591V63.2659H110.696V67.0591H103.173ZM104.37 66.079H109.513V64.2205H104.37V66.079Z" fill="#9BC6FF"/>
</g>
<defs>
<filter id="filter0_i_1504_1194" x="0.591797" y="0.591797" width="611.814" height="124.816" filterUnits="userSpaceOnUse" color-interpolation-filters="sRGB">
<feFlood flood-opacity="0" result="BackgroundImageFix"/>
<feBlend mode="normal" in="SourceGraphic" in2="BackgroundImageFix" result="shape"/>
<feColorMatrix in="SourceAlpha" type="matrix" values="0 0 0 0 0 0 0 0 0 0 0 0 0 0 0 0 0 0 127 0" result="hardAlpha"/>
<feOffset dy="2"/>
<feGaussianBlur stdDeviation="0.9"/>
<feComposite in2="hardAlpha" operator="arithmetic" k2="-1" k3="1"/>
<feColorMatrix type="matrix" values="0 0 0 0 0.505882 0 0 0 0 0.580392 0 0 0 0 0.639216 0 0 0 0.1 0"/>
<feBlend mode="normal" in2="shape" result="effect1_innerShadow_1504_1194"/>
</filter>
</defs>
</svg>
