<svg width="387" height="247" viewBox="0 0 387 247" fill="none" xmlns="http://www.w3.org/2000/svg">
<path d="M387.5 1V0.5H387H29.8H29.7763C24.7558 0.499999 20.9588 0.499999 17.9369 0.746896C14.9045 0.994658 12.6086 1.49354 10.6012 2.51638C7.12018 4.29004 4.29004 7.12018 2.51638 10.6012C1.49354 12.6086 0.994658 14.9045 0.746896 17.9369C0.499999 20.9588 0.499999 24.7558 0.5 29.7763V29.8V216.599V216.623C0.499999 221.643 0.499999 225.44 0.746896 228.462C0.994658 231.495 1.49354 233.791 2.51638 235.798C4.29004 239.279 7.12018 242.109 10.6012 243.883C12.6086 244.906 14.9045 245.405 17.9369 245.652C20.9589 245.899 24.7561 245.899 29.7768 245.899H29.8H387H387.5V245.399V1Z" stroke="#171D23"/>
<g clip-path="url(#clip0_1508_1272)">
<path d="M1 29.8C1 19.719 1 14.6786 2.96188 10.8282C4.6876 7.44125 7.44125 4.6876 10.8282 2.96188C14.6786 1 19.7191 1 29.8 1H123.2V123.2H1V29.8Z" fill="#0A0D11"/>
<path d="M1 29.8C1 19.719 1 14.6786 2.96188 10.8282C4.6876 7.44125 7.44125 4.6876 10.8282 2.96188C14.6786 1 19.7191 1 29.8 1H123.2V123.2H1V29.8Z" fill="white" fill-opacity="0.01"/>
<path d="M1 1H123.2H1ZM123.7 123.7H1V122.7H122.7L123.7 123.7ZM1 123.2V1V123.2ZM123.7 1V123.7L122.7 122.7V1H123.7Z" fill="#171D23"/>
<path d="M93.6909 25.5906L93.675 24.5405L97.6052 20.4035C98.9656 18.9556 99.6179 18.1759 99.6259 17.1099C99.6179 15.9245 98.6314 15.1607 97.3347 15.1528C95.9583 15.1607 95.0991 16.0279 95.0911 17.3167H93.7387C93.7228 15.28 95.298 13.9117 97.3824 13.9117C99.4747 13.9117 100.955 15.3198 100.962 17.1099C100.955 18.3987 100.358 19.4011 98.3212 21.5014L95.6799 24.2223V24.3177H101.169V25.5906H93.6909ZM103.254 25.5906L103.238 24.5405L107.168 20.4035C108.528 18.9556 109.181 18.1759 109.189 17.1099C109.181 15.9245 108.194 15.1607 106.897 15.1528C105.521 15.1607 104.662 16.0279 104.654 17.3167H103.301C103.286 15.28 104.861 13.9117 106.945 13.9117C109.037 13.9117 110.517 15.3198 110.525 17.1099C110.517 18.3987 109.921 19.4011 107.884 21.5014L105.243 24.2223V24.3177H110.732V25.5906H103.254Z" fill="#C1D1DF"/>
<rect x="123.2" y="1" width="122.2" height="122.2" fill="#0A0D11"/>
<rect x="123.2" y="1" width="122.2" height="122.2" stroke="#171D23"/>
<path d="M133.431 94.002C133.431 90.352 133.431 88.527 134.141 87.1329C134.766 85.9065 135.763 84.9095 136.989 84.2847C138.383 83.5743 140.208 83.5743 143.858 83.5743H224.74C228.39 83.5743 230.215 83.5743 231.61 84.2847C232.836 84.9095 233.833 85.9065 234.458 87.1329C235.168 88.527 235.168 90.352 235.168 94.002V102.181C235.168 105.831 235.168 107.656 234.458 109.05C233.833 110.277 232.836 111.274 231.61 111.899C230.215 112.609 228.39 112.609 224.74 112.609H143.858C140.208 112.609 138.383 112.609 136.989 111.899C135.763 111.274 134.766 110.277 134.141 109.05C133.431 107.656 133.431 105.831 133.431 102.181V94.002Z" fill="#9747FF" fill-opacity="0.2"/>
<path d="M152.728 92.7811V101.475H151.519V99.1202H149.686V98.1528H151.519V96.7398H149.686V95.747H151.519V92.7811H152.728ZM143.232 95.0851V94.1049H145.905V92.7684H147.102V94.1049H149.648V95.0851H143.232ZM143.869 97.8218C143.869 96.5171 144.951 95.626 146.491 95.6324C148.025 95.626 149.119 96.5171 149.126 97.8218C149.119 99.1329 148.025 100.024 146.491 100.024C144.951 100.024 143.869 99.1329 143.869 97.8218ZM145.002 97.8218C144.995 98.5983 145.606 99.082 146.491 99.082C147.363 99.082 147.98 98.5983 147.993 97.8218C147.98 97.0708 147.363 96.5871 146.491 96.5744C145.606 96.5871 144.995 97.0708 145.002 97.8218ZM145.282 103.932V100.711H146.504V102.952H152.983V103.932H145.282ZM160.327 93.774C160.321 95.2887 162.173 96.708 164.413 97.0072L163.942 98C162.078 97.7009 160.442 96.7335 159.697 95.3906C158.953 96.7335 157.317 97.7009 155.465 98L154.981 97.0072C157.215 96.708 159.061 95.3078 159.067 93.774V93.1502H160.327V93.774ZM154.485 100.113V99.1202H164.884V100.113H160.251V104.174H159.067V100.113H154.485ZM169.174 93.4939C170.931 93.4939 172.236 94.6013 172.242 96.2052C172.236 97.6182 171.224 98.6428 169.785 98.872V100.68C170.797 100.629 171.809 100.552 172.751 100.431L172.84 101.335C170.428 101.755 167.774 101.774 165.801 101.755L165.61 100.762C166.495 100.756 167.513 100.75 168.576 100.724V98.872C167.106 98.6556 166.1 97.6245 166.106 96.2052C166.1 94.6013 167.386 93.4939 169.174 93.4939ZM167.278 96.2052C167.271 97.2172 168.079 97.8918 169.174 97.8855C170.256 97.8918 171.052 97.2172 171.058 96.2052C171.052 95.1869 170.256 94.525 169.174 94.5122C168.079 94.525 167.271 95.1869 167.278 96.2052ZM173.438 104.174V92.7684H174.648V97.4018H176.404V98.4201H174.648V104.174H173.438ZM183.354 93.4303C184.303 93.4239 185.111 93.7803 185.646 94.3722H188.497V92.7684H189.706V99.5021H188.497V97.9618H185.639C185.105 98.5474 184.296 98.8974 183.354 98.8911C181.636 98.8974 180.357 97.7582 180.363 96.167C180.357 94.5568 181.636 93.4239 183.354 93.4303ZM181.521 96.167C181.515 97.1663 182.285 97.8727 183.354 97.86C184.392 97.8727 185.162 97.1663 185.162 96.167C185.162 95.1423 184.392 94.4613 183.354 94.4741C182.285 94.4613 181.515 95.1423 181.521 96.167ZM182.031 101.959C182.024 100.565 183.501 99.7503 185.887 99.7566C188.261 99.7503 189.738 100.565 189.744 101.959C189.738 103.346 188.261 104.155 185.887 104.148C183.501 104.155 182.024 103.346 182.031 101.959ZM183.214 101.959C183.208 102.742 184.214 103.2 185.887 103.194C187.561 103.2 188.561 102.742 188.561 101.959C188.561 101.144 187.561 100.692 185.887 100.686C184.214 100.692 183.208 101.144 183.214 101.959ZM186.199 95.3396C186.276 95.5942 186.32 95.8743 186.32 96.167C186.32 96.4471 186.276 96.7207 186.199 96.969H188.497V95.3396H186.199ZM200.399 92.7684V97.5418H202.117V98.5601H200.399V104.174H199.189V92.7684H200.399ZM191.323 101.068C192.22 101.068 193.264 101.068 194.352 101.036V99.8776C193.067 99.6866 192.227 98.9102 192.239 97.8091C192.227 96.5234 193.34 95.677 194.963 95.6706C196.58 95.677 197.706 96.5234 197.713 97.8091C197.706 98.9102 196.854 99.693 195.562 99.8776V100.991C196.574 100.94 197.592 100.858 198.54 100.724L198.617 101.615C196.147 102.054 193.48 102.08 191.514 102.073L191.323 101.068ZM191.539 95.0851V94.1176H194.352V92.7938H195.562V94.1176H198.375V95.0851H191.539ZM193.372 97.8091C193.372 98.5346 194.009 98.9865 194.963 98.9802C195.918 98.9865 196.548 98.5346 196.554 97.8091C196.548 97.0772 195.918 96.6126 194.963 96.6126C194.009 96.6126 193.372 97.0772 193.372 97.8091ZM213.166 101.755V102.761H202.728V101.755H207.323V99.413H203.925V93.5448H205.134V95.5051H210.735V93.5448H211.931V99.413H208.52V101.755H213.166ZM205.134 98.4328H210.735V96.4853H205.134V98.4328ZM223.477 92.7684V104.174H222.255V92.7684H223.477ZM214.108 101.119C217.137 99.6739 218.62 97.6182 218.856 94.9578H214.655V93.9904H220.078C220.078 97.3317 218.659 100.221 214.744 102.099L214.108 101.119Z" fill="#CCA5FF"/>
<circle cx="224.6" cy="19.5996" r="12" fill="#E8352A"/>
<path d="M215.815 25.2786L215.799 24.2284L219.729 20.0915C221.09 18.6435 221.742 17.8639 221.75 16.7978C221.742 15.6124 220.756 14.8487 219.459 14.8407C218.082 14.8487 217.223 15.7158 217.215 17.0047H215.863C215.847 14.968 217.422 13.5996 219.507 13.5996C221.599 13.5996 223.079 15.0078 223.087 16.7978C223.079 18.0866 222.482 19.089 220.445 21.1894L217.804 23.9102V24.0057H223.293V25.2786H215.815Z" fill="white"/>
<path d="M229.356 25.4377C227.064 25.4377 225.418 24.2125 225.346 22.3827H226.794C226.874 23.4806 227.963 24.1648 229.34 24.1648C230.859 24.1648 231.957 23.3453 231.965 22.144C231.957 20.887 230.955 20.004 229.165 19.996H228.226V18.739H229.165C230.565 18.739 231.544 17.9514 231.536 16.766C231.544 15.6124 230.7 14.8487 229.388 14.8407C228.154 14.8487 227.033 15.5249 226.969 16.6546H225.585C225.656 14.8248 227.359 13.5996 229.403 13.5996C231.599 13.5996 232.936 15.0396 232.92 16.6864C232.936 17.9991 232.172 18.9538 230.963 19.2959V19.3754C232.466 19.6062 233.373 20.6802 233.365 22.144C233.373 24.0375 231.655 25.4377 229.356 25.4377Z" fill="white"/>
<path d="M245.399 1H367.599V123.2H245.399V1Z" fill="#0A0D11"/>
<path d="M245.399 1H367.599V123.2H245.399V1Z" stroke="#171D23"/>
<path d="M338.09 25.5906L338.074 24.5405L342.004 20.4035C343.365 18.9556 344.017 18.1759 344.025 17.1099C344.017 15.9245 343.031 15.1607 341.734 15.1528C340.358 15.1607 339.498 16.0279 339.49 17.3167H338.138C338.122 15.28 339.697 13.9117 341.782 13.9117C343.874 13.9117 345.354 15.3198 345.362 17.1099C345.354 18.3987 344.757 19.4011 342.72 21.5014L340.079 24.2223V24.3177H345.569V25.5906H338.09ZM347.112 23.2357V22.0583L352.299 14.0708H354.065V21.9787H355.672V23.2357H354.065V25.5906H352.697V23.2357H347.112ZM348.655 21.9787H352.697V15.8847H352.554L348.655 21.8833V21.9787Z" fill="#C1D1DF"/>
<path d="M367.599 1H489.798V123.2H367.599V1Z" fill="#0A0D11"/>
<path d="M367.599 1H489.798V123.2H367.599V1Z" stroke="#171D23"/>
<path d="M11.5996 57.0273C11.5996 53.3773 11.5996 51.5523 12.31 50.1581C12.9348 48.9318 13.9318 47.9348 15.1581 47.31C16.5523 46.5996 18.3773 46.5996 22.0273 46.5996H346.168C349.819 46.5996 351.645 46.5996 353.04 47.3102C354.266 47.9353 355.264 48.9328 355.889 50.1596C356.6 51.5543 356.6 53.3801 356.6 57.0316V65.2022C356.6 68.8538 356.6 70.6795 355.889 72.0742C355.264 73.3011 354.266 74.2985 353.04 74.9236C351.645 75.6342 349.819 75.6342 346.168 75.6342H22.0273C18.3773 75.6342 16.5523 75.6342 15.1581 74.9239C13.9318 74.2991 12.9348 73.302 12.31 72.0757C11.5996 70.6816 11.5996 68.8566 11.5996 65.2065V57.0273Z" fill="#162942"/>
<path d="M31.177 55.7936V67.1989H30.0187V55.7936H31.177ZM21.2228 64.0548C22.8394 63.081 23.6605 61.0062 23.6668 58.9759V58.0594H21.5665V57.0793H26.7855V58.0594H24.8252V58.9759C24.8252 60.9235 25.6144 62.8774 27.2182 63.8002L26.4927 64.6913C25.4043 64.0421 24.6597 62.8774 24.2587 61.5026C23.8514 62.9919 23.0749 64.2649 21.9611 64.9586L21.2228 64.0548ZM25.9453 60.8216V59.8288H27.7147V56.0355H28.8603V66.6261H27.7147V60.8216H25.9453ZM39.731 56.9011V66.1169H38.318V58.3013H38.2671L36.065 59.7397V58.4031L38.3562 56.9011H39.731ZM48.4886 56.952V57.9194H41.6913V56.952H44.4917V55.7427H45.7009V56.952H48.4886ZM42.315 60.5034C42.3086 59.2559 43.4415 58.4413 45.0899 58.4286C46.732 58.4413 47.8522 59.2559 47.8522 60.5034C47.8522 61.7572 46.732 62.5782 45.0899 62.5782C43.4415 62.5782 42.3086 61.7572 42.315 60.5034ZM43.1042 64.4876V63.5075H50.6398V67.1989H49.4306V64.4876H43.1042ZM43.4861 60.5034C43.4733 61.2099 44.1225 61.6363 45.0899 61.6363C46.0574 61.6363 46.7065 61.2099 46.7193 60.5034C46.7065 59.8033 46.0574 59.3641 45.0899 59.3578C44.1225 59.3641 43.4733 59.8033 43.4861 60.5034ZM49.4306 62.9219V55.7936H50.6398V58.8868H52.2946V59.8924H50.6398V62.9219H49.4306ZM62.427 55.7936V67.1989H61.205V55.7936H62.427ZM53.0584 64.1439C56.0879 62.6992 57.5708 60.6434 57.8063 57.983H53.6057V57.0156H59.0283C59.0283 60.357 57.609 63.2465 53.6948 65.1241L53.0584 64.1439ZM77.7911 61.0762V62.0564H73.1831V63.1511C75.2707 63.2656 76.5118 63.9657 76.5181 65.1623C76.5118 66.4543 75.0352 67.1798 72.5848 67.1735C70.1027 67.1798 68.6261 66.4543 68.6261 65.1623C68.6261 63.9657 69.8672 63.2593 71.9866 63.1511V62.0564H67.3914V61.0762H77.7911ZM67.9387 59.5233C69.9881 59.3132 71.6047 58.384 71.7702 57.2829H68.346V56.3155H76.8618V57.2829H73.3995C73.565 58.3904 75.1689 59.3132 77.2564 59.5233L76.8236 60.4779C74.8443 60.2488 73.2086 59.4151 72.5912 58.2058C71.9611 59.4151 70.3382 60.2488 68.3588 60.4779L67.9387 59.5233ZM69.8481 65.1623C69.8417 65.856 70.841 66.257 72.5848 66.2442C74.3033 66.257 75.3089 65.856 75.3089 65.1623C75.3089 64.4558 74.3033 64.0739 72.5848 64.0676C70.841 64.0739 69.8417 64.4558 69.8481 65.1623ZM87.6179 55.7936V59.1668H89.2727V60.1724H87.6179V64.0803H86.3959V55.7936H87.6179ZM78.6439 61.8654C81.317 61.0635 82.9718 59.5424 83.2073 57.6648H79.1276V56.6592H84.5248C84.5248 59.6505 82.4881 61.8209 79.1531 62.8328L78.6439 61.8654ZM80.3751 66.9571V63.2274H81.5971V65.9769H88.0889V66.9571H80.3751ZM94.1098 58.6959C94.0971 60.7771 95.3573 62.8774 97.1266 63.6602L96.401 64.6149C95.0899 63.9912 94.0525 62.7119 93.5179 61.1526C92.9896 62.8265 91.9395 64.2012 90.5711 64.8695L89.8328 63.8512C91.6276 63.0556 92.8878 60.8725 92.8878 58.6959V56.7483H94.1098V58.6959ZM98.1577 67.2244V55.7936H99.3669V67.2244H98.1577ZM110.696 55.7936V62.7055H109.487V60.2234H107.705V59.2178H109.487V55.7936H110.696ZM101.2 57.8939V56.9265H103.949V55.6918H105.146V56.9265H107.883V57.8939H101.2ZM101.862 60.4525C101.862 59.2559 102.982 58.4158 104.548 58.4158C106.113 58.4158 107.221 59.2559 107.221 60.4525C107.221 61.6808 106.113 62.4955 104.548 62.5019C102.982 62.4955 101.862 61.6808 101.862 60.4525ZM103.02 60.4525C103.02 61.1462 103.638 61.579 104.548 61.5854C105.445 61.579 106.062 61.1462 106.062 60.4525C106.062 59.7842 105.445 59.3387 104.548 59.345C103.638 59.3387 103.02 59.7842 103.02 60.4525ZM103.173 67.0589V63.2656H110.696V67.0589H103.173ZM104.369 66.0788H109.512V64.2203H104.369V66.0788Z" fill="#9BC6FF"/>
<path d="M1 123.2H123.2V245.399H29.8C19.719 245.399 14.6786 245.399 10.8282 243.437C7.44125 241.712 4.6876 238.958 2.96188 235.571C1 231.721 1 226.68 1 216.599V123.2Z" fill="#0A0D11"/>
<path d="M1 123.2H123.2V245.399H29.8C19.719 245.399 14.6786 245.399 10.8282 243.437C7.44125 241.712 4.6876 238.958 2.96188 235.571C1 231.721 1 226.68 1 216.599V123.2Z" fill="white" fill-opacity="0.01"/>
<path d="M1 122.7H123.7L122.7 123.7H1V122.7ZM123.2 245.399H1H123.2ZM1 245.399V123.2V245.399ZM123.7 122.7V245.399H122.7V123.7L123.7 122.7Z" fill="#171D23"/>
<path d="M93.6909 147.79L93.675 146.74L97.6052 142.603C98.9656 141.155 99.6179 140.376 99.6259 139.309C99.6179 138.124 98.6314 137.36 97.3347 137.352C95.9583 137.36 95.0991 138.227 95.0911 139.516H93.7387C93.7228 137.48 95.298 136.111 97.3824 136.111C99.4747 136.111 100.955 137.519 100.962 139.309C100.955 140.598 100.358 141.601 98.3212 143.701L95.6799 146.422V146.517H101.169V147.79H93.6909ZM107.104 147.949C104.678 147.949 103.007 146.605 103.015 144.735C103.007 143.248 104.041 142.014 105.354 141.808V141.744C104.208 141.481 103.453 140.423 103.461 139.166C103.453 137.408 104.996 136.111 107.104 136.111C109.205 136.111 110.748 137.408 110.764 139.166C110.748 140.423 109.984 141.481 108.855 141.744V141.808C110.159 142.014 111.193 143.248 111.209 144.735C111.193 146.605 109.507 147.949 107.104 147.949ZM104.447 144.656C104.423 145.865 105.449 146.684 107.104 146.692C108.751 146.684 109.777 145.865 109.777 144.656C109.777 143.383 108.656 142.444 107.104 142.444C105.561 142.444 104.423 143.383 104.447 144.656ZM104.845 139.278C104.853 140.439 105.784 141.227 107.104 141.235C108.417 141.227 109.364 140.439 109.364 139.278C109.364 138.124 108.449 137.344 107.104 137.352C105.736 137.344 104.853 138.124 104.845 139.278Z" fill="#C1D1DF"/>
<path d="M123.2 123.2H245.399V245.399H123.2V123.2Z" fill="#0A0D11"/>
<path d="M123.2 123.2H245.399V245.399H123.2V123.2Z" stroke="#171D23"/>
<path d="M215.891 147.79L215.875 146.74L219.805 142.603C221.165 141.155 221.818 140.376 221.826 139.309C221.818 138.124 220.831 137.36 219.534 137.352C218.158 137.36 217.299 138.227 217.291 139.516H215.938C215.922 137.48 217.498 136.111 219.582 136.111C221.674 136.111 223.154 137.519 223.162 139.309C223.154 140.598 222.557 141.601 220.521 143.701L217.879 146.422V146.517H223.369V147.79H215.891ZM229.288 136.111C231.269 136.135 233.473 137.328 233.473 141.569C233.473 145.666 231.794 147.949 229.097 147.949C227.068 147.949 225.644 146.708 225.358 144.878H226.774C227.029 145.913 227.816 146.676 229.097 146.676C230.975 146.676 232.12 145.053 232.136 142.253H231.977C231.317 143.208 230.259 143.781 229.033 143.781C226.973 143.781 225.262 142.197 225.262 139.978C225.262 137.83 226.838 136.087 229.288 136.111ZM226.663 139.962C226.655 141.386 227.737 142.524 229.24 142.524C230.744 142.524 231.913 141.282 231.913 139.93C231.913 138.609 230.807 137.368 229.288 137.368C227.784 137.368 226.647 138.538 226.663 139.962Z" fill="#C1D1DF"/>
<path d="M245.399 123.2H367.599V245.399H245.399V123.2Z" fill="#0A0D11"/>
<path d="M245.399 123.2H367.599V245.399H245.399V123.2Z" stroke="#171D23"/>
<path d="M342.068 147.949C339.777 147.949 338.13 146.724 338.058 144.894H339.506C339.586 145.992 340.676 146.676 342.052 146.676C343.572 146.676 344.67 145.857 344.677 144.656C344.67 143.399 343.667 142.516 341.877 142.508H340.938V141.251H341.877C343.277 141.251 344.256 140.463 344.248 139.278C344.256 138.124 343.413 137.36 342.1 137.352C340.867 137.36 339.745 138.037 339.681 139.166H338.297C338.369 137.336 340.071 136.111 342.116 136.111C344.312 136.111 345.648 137.551 345.632 139.198C345.648 140.511 344.884 141.465 343.675 141.808V141.887C345.179 142.118 346.086 143.192 346.078 144.656C346.086 146.549 344.367 147.949 342.068 147.949ZM351.917 147.949C349.363 147.949 347.884 145.801 347.892 142.03C347.884 138.291 349.379 136.111 351.917 136.111C354.447 136.111 355.943 138.291 355.943 142.03C355.943 145.801 354.471 147.949 351.917 147.949ZM349.276 142.03C349.284 145.014 350.246 146.676 351.917 146.676C353.58 146.676 354.551 145.014 354.543 142.03C354.551 139.047 353.572 137.36 351.917 137.352C350.262 137.36 349.284 139.047 349.276 142.03Z" fill="#C1D1DF"/>
<path d="M255.99 179.227C255.99 175.577 255.99 173.752 256.7 172.358C257.325 171.132 258.322 170.134 259.548 169.51C260.942 168.799 262.767 168.799 266.418 168.799H339.299C342.949 168.799 344.774 168.799 346.169 169.51C347.395 170.134 348.392 171.132 349.017 172.358C349.727 173.752 349.727 175.577 349.727 179.227V187.406C349.727 191.056 349.727 192.881 349.017 194.275C348.392 195.502 347.395 196.499 346.169 197.124C344.774 197.834 342.949 197.834 339.299 197.834H266.418C262.767 197.834 260.942 197.834 259.548 197.124C258.322 196.499 257.325 195.502 256.7 194.275C255.99 192.881 255.99 191.056 255.99 187.406V179.227Z" fill="#162942"/>
<path d="M275.567 177.993V189.399H274.409V177.993H275.567ZM265.613 186.255C267.23 185.281 268.051 183.206 268.057 181.176V180.259H265.957V179.279H271.176V180.259H269.215V181.176C269.215 183.123 270.005 185.077 271.608 186L270.883 186.891C269.795 186.242 269.05 185.077 268.649 183.702C268.242 185.192 267.465 186.465 266.351 187.158L265.613 186.255ZM270.336 183.021V182.028H272.105V178.235H273.251V188.826H272.105V183.021H270.336ZM280.939 179.101V188.317H279.526V180.501H279.475L277.273 181.939V180.603L279.564 179.101H280.939ZM289.697 179.152V180.119H282.899V179.152H285.7V177.942H286.909V179.152H289.697ZM283.523 182.703C283.517 181.456 284.649 180.641 286.298 180.628C287.94 180.641 289.06 181.456 289.06 182.703C289.06 183.957 287.94 184.778 286.298 184.778C284.649 184.778 283.517 183.957 283.523 182.703ZM284.312 186.687V185.707H291.848V189.399H290.639V186.687H284.312ZM284.694 182.703C284.681 183.41 285.33 183.836 286.298 183.836C287.265 183.836 287.914 183.41 287.927 182.703C287.914 182.003 287.265 181.564 286.298 181.557C285.33 181.564 284.681 182.003 284.694 182.703ZM290.639 185.122V177.993H291.848V181.087H293.503V182.092H291.848V185.122H290.639ZM303.635 177.993V189.399H302.413V177.993H303.635ZM294.266 186.344C297.296 184.899 298.779 182.843 299.014 180.183H294.814V179.215H300.236C300.236 182.557 298.817 185.446 294.903 187.324L294.266 186.344ZM308.994 188.317V187.298L312.189 184.078C313.201 183.028 313.704 182.442 313.704 181.634C313.704 180.724 312.965 180.145 311.998 180.145C310.973 180.145 310.324 180.794 310.318 181.774H308.994C308.981 180.087 310.267 178.973 312.023 178.973C313.799 178.973 315.028 180.1 315.04 181.596C315.028 182.627 314.544 183.448 312.813 185.147L310.941 187.044V187.12H315.193V188.317H308.994ZM320.272 178.668L317.306 189.704H316.097L319.063 178.668H320.272ZM321.061 186.522V185.389L325.134 179.101H326.866V185.338H328.126V186.522H326.866V188.317H325.542V186.522H321.061ZM322.538 185.338H325.542V180.768H325.44L322.538 185.262V185.338ZM333.167 180.081C333.173 181.627 334.198 183.117 335.916 183.721L335.254 184.663C334.013 184.186 333.077 183.244 332.587 182.067C332.097 183.378 331.123 184.415 329.781 184.931L329.131 183.976C330.907 183.346 331.964 181.761 331.97 180.043V178.693H333.167V180.081ZM331.206 189.157V185.554H332.428V188.177H338.907V189.157H331.206ZM335.038 181.596V180.603H337.443V178.006H338.653V186.509H337.443V181.596H335.038Z" fill="#9BC6FF"/>
<path d="M255.99 216.202C255.99 212.552 255.99 210.727 256.7 209.332C257.325 208.106 258.322 207.109 259.548 206.484C260.942 205.774 262.767 205.774 266.418 205.774H347.299C350.949 205.774 352.774 205.774 354.169 206.484C355.395 207.109 356.392 208.106 357.017 209.332C357.727 210.727 357.727 212.552 357.727 216.202V224.381C357.727 228.031 357.727 229.856 357.017 231.25C356.392 232.476 355.395 233.473 354.169 234.098C352.774 234.809 350.949 234.809 347.299 234.809H266.418C262.767 234.809 260.942 234.809 259.548 234.098C258.322 233.473 257.325 232.476 256.7 231.25C255.99 229.856 255.99 228.031 255.99 224.381V216.202Z" fill="#2AE86B" fill-opacity="0.2"/>
<path d="M269.254 218.087C269.254 219.907 270.017 221.848 271.545 222.784L270.87 223.713C269.801 223.07 269.082 221.931 268.687 220.613C268.273 222.058 267.484 223.293 266.377 223.967L265.626 223.064C267.236 222.096 268.089 220.079 268.082 218.137V216.012H269.254V218.087ZM270.31 219.983V218.978H272.079V215.184H273.225V225.813H272.079V219.983H270.31ZM274.434 226.373V214.968H275.593V226.373H274.434ZM286.552 214.981V223.675H285.343V221.32H283.51V220.352H285.343V218.939H283.51V217.947H285.343V214.981H286.552ZM277.057 217.285V216.304H279.73V214.968H280.926V216.304H283.472V217.285H277.057ZM277.693 220.021C277.693 218.717 278.775 217.826 280.315 217.832C281.849 217.826 282.944 218.717 282.95 220.021C282.944 221.333 281.849 222.224 280.315 222.224C278.775 222.224 277.693 221.333 277.693 220.021ZM278.826 220.021C278.82 220.798 279.431 221.282 280.315 221.282C281.187 221.282 281.804 220.798 281.817 220.021C281.804 219.27 281.187 218.787 280.315 218.774C279.431 218.787 278.82 219.27 278.826 220.021ZM279.106 226.131V222.911H280.328V225.151H286.807V226.131H279.106ZM294.661 216.19V216.89C294.655 217.851 294.655 219.321 294.33 221.358L293.133 221.269C293.426 219.449 293.458 218.118 293.464 217.17H288.831V216.19H294.661ZM288.195 222.936C288.907 222.93 289.703 222.924 290.537 222.905V219.449H291.733V222.866C292.942 222.815 294.184 222.739 295.323 222.593L295.386 223.496C293.012 223.878 290.358 223.929 288.335 223.917L288.195 222.936ZM295.972 226.373V214.968H297.194V219.678H298.938V220.709H297.194V226.373H295.972ZM312.278 214.968V226.399H311.069V220.06H308.714V219.067H311.069V214.968H312.278ZM302.629 223.216C304.373 222.383 305.602 220.225 305.608 218.176V217.106H303.088V216.114H309.363V217.106H306.83V218.176C306.83 220.104 308.046 222.185 309.796 222.962L309.07 223.929C307.753 223.293 306.741 221.963 306.232 220.41C305.723 222.064 304.685 223.484 303.368 224.158L302.629 223.216ZM315.893 215.643V220.365C317.612 220.352 318.91 220.27 320.386 219.996L320.539 220.989C318.923 221.307 317.478 221.39 315.549 221.383H314.697V215.643H315.893ZM315.791 223.344V222.364H323.531V226.373H322.321V223.344H315.791ZM319.215 219.27V218.341H322.321V217.221H319.215V216.292H322.321V214.968H323.531V221.854H322.321V219.27H319.215ZM329.437 216.61C329.431 218.188 330.5 219.633 332.263 220.212L331.652 221.167C330.328 220.709 329.341 219.78 328.826 218.589C328.317 219.862 327.311 220.874 325.962 221.358L325.351 220.416C327.127 219.786 328.196 218.239 328.202 216.61V215.515H329.437V216.61ZM327.018 223.344V222.364H334.745V226.373H333.536V223.344H327.018ZM333.536 221.816V214.968H334.745V221.816H333.536ZM340.511 217.87C340.498 219.888 341.676 221.956 343.375 222.784L342.624 223.751C341.383 223.102 340.422 221.829 339.919 220.308C339.41 221.924 338.411 223.293 337.113 223.967L336.362 222.987C338.112 222.147 339.296 219.958 339.302 217.87V215.923H340.511V217.87ZM344.228 226.373V214.968H345.437V219.512H347.27V220.543H345.437V226.373H344.228Z" fill="#A3FFC3"/>
<path d="M367.599 123.2H489.798V245.399H367.599V123.2Z" fill="#0A0D11"/>
<path d="M367.599 123.2H489.798V245.399H367.599V123.2Z" stroke="#171D23"/>
<path d="M378.189 179.227C378.189 175.577 378.189 173.752 378.9 172.358C379.525 171.132 380.522 170.134 381.748 169.51C383.142 168.799 384.967 168.799 388.617 168.799H461.499C465.149 168.799 466.974 168.799 468.368 169.51C469.595 170.134 470.592 171.132 471.216 172.358C471.927 173.752 471.927 175.577 471.927 179.227V187.406C471.927 191.056 471.927 192.881 471.216 194.275C470.592 195.502 469.595 196.499 468.368 197.124C466.974 197.834 465.149 197.834 461.499 197.834H388.617C384.967 197.834 383.142 197.834 381.748 197.124C380.522 196.499 379.525 195.502 378.9 194.275C378.189 192.881 378.189 191.056 378.189 187.406V179.227Z" fill="#162942"/>
</g>
<defs>
<clipPath id="clip0_1508_1272">
<rect width="386" height="244.399" fill="white" transform="translate(1 1)"/>
</clipPath>
</defs>
</svg>
